HIERARCHY
ROOT Hips
{
	OFFSET 0.00000 0.00000 0.00000
	CHANNELS 6 Xposition Yposition Zposition Zrotation Yrotation Xrotation 
	JOINT LHipJoint
	{
		OFFSET 0 0 0
		CHANNELS 3 Zrotation Yrotation Xrotation
		JOINT LeftHip
		{
			OFFSET 1.81638 -1.86202 0.89635
			CHANNELS 3 Zrotation Yrotation Xrotation
			JOINT LeftKnee
			{
				OFFSET 2.63464 -7.23861 0.00000
				CHANNELS 3 Zrotation Yrotation Xrotation
				JOINT LeftAnkle
				{
					OFFSET 2.45871 -6.75336 0.00000
					CHANNELS 3 Zrotation Yrotation Xrotation
					JOINT LeftToe
					{
						OFFSET 0.34235 -0.94059 2.20020
						CHANNELS 3 Zrotation Yrotation Xrotation
						End Site
						{
							OFFSET 0.00000 -0.00000 1.18611
						}
					}
				}
			}
		}
	}
	JOINT RHipJoint
	{
		OFFSET 0 0 0
		CHANNELS 3 Zrotation Yrotation Xrotation
		JOINT RightHip
		{
			OFFSET -1.84405 -1.86203 0.89635
			CHANNELS 3 Zrotation Yrotation Xrotation
			JOINT RightKnee
			{
				OFFSET -2.71067 -7.44751 0.00000
				CHANNELS 3 Zrotation Yrotation Xrotation
				JOINT RightAnkle
				{
					OFFSET -2.47159 -6.79060 0.00000
					CHANNELS 3 Zrotation Yrotation Xrotation
					JOINT RightToe
					{
						OFFSET -0.26223 -0.72048 2.36007
						CHANNELS 3 Zrotation Yrotation Xrotation
						End Site
						{
							OFFSET -0.00000 -0.00000 1.23343
						}
					}
				}
			}
		}
	}
	JOINT lowerback
	{
		OFFSET 0 0 0
		CHANNELS 3 Zrotation Yrotation Xrotation
		JOINT Chest
		{
			OFFSET 0.02089 1.99248 -0.22512
			CHANNELS 3 Zrotation Yrotation Xrotation
			JOINT Chest2
			{
				OFFSET 0.01476 2.01356 -0.03079
				CHANNELS 3 Zrotation Yrotation Xrotation
				JOINT lowerneck
				{
					OFFSET 0 0 0
					CHANNELS 3 Zrotation Yrotation Xrotation
					JOINT Neck
					{
						OFFSET 0.04846 1.65098 0.06663
						CHANNELS 3 Zrotation Yrotation Xrotation
						JOINT Head
						{
							OFFSET -0.06061 1.60634 -0.07565
							CHANNELS 3 Zrotation Yrotation Xrotation
							End Site
							{
								OFFSET -0.02954 1.73562 -0.03642
							}
						}
					}
				}
				JOINT LeftCollar
				{
					OFFSET 0 0 0
					CHANNELS 3 Zrotation Yrotation Xrotation
					JOINT LeftShoulder
					{
						OFFSET 3.45234 1.47051 -0.06993
CHANNELS 3 Zrotation Xrotation Yrotation
						JOINT LeftElbow
						{
OFFSET 0 -5.493130 0.000000
CHANNELS 3 Zrotation Xrotation Yrotation
							JOINT LeftWrist
							{
OFFSET 0 -3.290370 0.000000
CHANNELS 3 Zrotation Xrotation Yrotation
								JOINT lhand
								{
									OFFSET 0 0 0
CHANNELS 3 Zrotation Xrotation Yrotation
									JOINT LFingers
									{
OFFSET 0 -0.729660 0.000000
CHANNELS 3 Zrotation Xrotation Yrotation
										End Site
										{
OFFSET 0 -0.588270 0.000000
										}
									}
								}
								JOINT LThumb
								{
OFFSET 0 0.000000 0.000000
CHANNELS 3 Zrotation Xrotation Yrotation
									End Site
									{
OFFSET 0 -0.597250 0.597250
									}
								}
							}
						}
					}
				}
				JOINT RightCollar
				{
					OFFSET 0 0 0
					CHANNELS 3 Zrotation Yrotation Xrotation
					JOINT RightShoulder
					{
						OFFSET -3.41935 1.44327 0.20453
CHANNELS 3 Zrotation Xrotation Yrotation
						JOINT RightElbow
						{
OFFSET 0 -5.236840 0.000000
CHANNELS 3 Zrotation Xrotation Yrotation
							JOINT RightWrist
							{
OFFSET 0 -3.382510 0.000000
CHANNELS 3 Zrotation Xrotation Yrotation
								JOINT rhand
								{
									OFFSET 0 0 0
CHANNELS 3 Zrotation Xrotation Yrotation
									JOINT RFingers
									{
OFFSET 0 -0.691450 0.000000
CHANNELS 3 Zrotation Xrotation Yrotation
										End Site
										{
OFFSET 0 -0.557470 0.000000
										}
									}
								}
								JOINT RThumb
								{
OFFSET 0 0.000000 0.000000
CHANNELS 3 Zrotation Xrotation Yrotation
									End Site
									{
OFFSET 0 -0.565980 0.565980
									}
								}
							}
						}
					}
				}
			}
		}
	}
}
MOTION
Frames: 9
Frame Time: 0.008333333333333333
5.195517 17.760150 -0.365593 -173.006554 80.797953 -162.440407 0.000000 0.000000 0.000000 -8.733914 -2.755660 -23.570135 10.612823 17.739505 61.516766 -1.203026 -19.314764 3.420794 0.509058 -4.573191 -12.695157 0.000000 0.000000 0.000000 21.014471 11.798297 -22.655228 -3.134678 -10.909712 31.976219 -0.861437 -4.947796 -20.000687 -0.011934 -0.701189 1.927046 6.171419 -2.022061 20.232167 4.129587 -0.611349 4.478031 1.084268 -0.189016 -6.480217 8.777908 -2.030263 -1.228584 -9.576360 -2.851764 -1.163362 -4.670648 -1.438221 -0.443149 0.000000 0.000000 0.000000 8.981735 22.306040 -30.002530 39.358481 -47.679169 17.965311 14.615841 3.388239 -11.103344 0.000000 0.000000 0.000000 -7.125000 0.000000 0.000000 -11.082917 41.189610 -1.056385 0.000000 0.000000 0.000000 -9.871353 28.526343 26.090409 -19.231359 -29.704750 -5.145156 -2.733966 5.493599 17.966959 0.000000 0.000000 0.000000 7.125000 0.000000 0.000000 23.758191 46.488215 -0.922958
5.440725 17.738134 -0.364862 -174.154813 81.281559 -163.508803 0.000000 0.000000 0.000000 -8.995385 -3.052335 -24.989217 11.074349 17.970720 63.022169 -1.009646 -18.280366 1.018224 0.466859 -4.382180 -12.154565 0.000000 0.000000 0.000000 20.996201 11.831254 -22.144790 -3.265733 -11.113034 32.662320 -0.980919 -4.482108 -20.838033 -0.004216 -0.409943 1.126313 6.046789 -1.668092 20.388431 4.199419 -0.155642 4.517921 1.115344 0.034423 -6.507536 8.945690 -2.041128 -1.223880 -10.085006 -2.867541 -1.067721 -4.478442 -1.442465 -0.390019 0.000000 0.000000 0.000000 8.394232 23.122764 -30.193002 36.878643 -46.099402 16.155331 14.779163 4.461350 -11.788758 0.000000 0.000000 0.000000 -7.125000 0.000000 0.000000 -11.093114 41.896457 -0.860558 0.000000 0.000000 0.000000 -10.181518 27.574324 25.930323 -18.814234 -29.187026 -4.940063 -5.029419 8.146120 17.950593 0.000000 0.000000 0.000000 7.125000 0.000000 0.000000 21.712387 46.768373 -0.991103
5.685237 17.728093 -0.366509 -175.808230 81.840955 -165.156896 0.000000 0.000000 0.000000 -9.442767 -3.316840 -26.223024 11.328491 18.092134 63.843674 -0.810522 -17.347062 -1.472017 0.432476 -4.220360 -11.697328 0.000000 0.000000 0.000000 20.895166 11.945659 -21.358347 -3.342324 -11.229636 33.058194 -1.091301 -4.078369 -21.597812 -0.000879 -0.186713 0.512993 5.830328 -1.317058 20.682315 4.198031 0.281435 4.561690 1.126731 0.247894 -6.605925 9.128876 -2.044770 -1.166494 -10.269480 -2.865407 -0.968607 -4.565309 -1.440588 -0.375498 0.000000 0.000000 0.000000 7.945410 24.020789 -30.492392 34.564694 -44.497788 14.507779 14.240595 5.486297 -12.324245 0.000000 0.000000 0.000000 -7.125000 0.000000 0.000000 -11.690550 42.383468 -0.766022 0.000000 0.000000 0.000000 -10.449710 26.767419 25.877641 -18.638571 -28.967119 -4.854577 -8.081923 10.802059 17.834608 0.000000 0.000000 0.000000 7.125000 0.000000 0.000000 18.921907 47.057278 -0.994744
5.928552 17.730101 -0.371611 -177.324957 82.390436 -166.693753 0.000000 0.000000 0.000000 -9.927004 -3.628505 -27.335507 11.356558 18.105220 63.934250 -0.599201 -16.492581 -3.961216 0.409417 -4.107510 -11.379218 0.000000 0.000000 0.000000 20.835763 12.131721 -20.346603 -3.355773 -11.249831 33.127149 -1.189351 -3.753657 -22.265921 -0.000165 -0.055730 0.153094 5.685771 -0.991896 21.054407 4.147134 0.701319 4.603152 1.046152 0.450253 -6.748925 9.246993 -2.056421 -1.134962 -10.359922 -2.875456 -0.881226 -4.612677 -1.445425 -0.359206 0.000000 0.000000 0.000000 7.672685 25.001504 -30.912409 32.531396 -42.960405 13.103768 12.761568 6.249784 -12.541669 0.000000 0.000000 0.000000 -7.125000 0.000000 0.000000 -13.043424 42.453831 -0.835748 0.000000 0.000000 0.000000 -10.635292 26.127814 25.988073 -18.706079 -29.051792 -4.887349 -11.899449 13.092751 17.496008 0.000000 0.000000 0.000000 7.125000 0.000000 0.000000 15.313151 47.236376 -0.863729
6.171309 17.741517 -0.379896 -178.551484 82.900254 -167.899180 0.000000 0.000000 0.000000 -10.396267 -4.032754 -28.400413 11.207766 18.035186 63.454407 -0.377394 -15.642742 -6.354743 0.392965 -4.025265 -11.147640 0.000000 0.000000 0.000000 20.832482 12.331270 -19.263316 -3.325307 -11.203901 32.970550 -1.261762 -3.533528 -22.756789 -0.000432 0.123985 -0.340747 5.643949 -0.697212 21.421120 4.062281 1.098744 4.636965 0.873217 0.639049 -6.895356 9.297061 -2.068850 -1.201301 -10.369664 -2.891330 -0.769955 -4.625271 -1.455823 -0.318328 0.000000 0.000000 0.000000 7.534501 26.042653 -31.386863 30.753131 -41.527630 11.906718 10.576402 6.697732 -12.414363 0.000000 0.000000 0.000000 -7.125000 0.000000 0.000000 -14.917841 42.113798 -1.090408 0.000000 0.000000 0.000000 -10.756807 25.613117 26.256117 -18.941789 -29.346227 -5.002353 -16.026028 14.762013 16.931875 0.000000 0.000000 0.000000 7.125000 0.000000 0.000000 11.316614 47.231431 -0.631524
6.414249 17.764537 -0.391660 -179.560833 83.369467 -168.809735 0.000000 0.000000 0.000000 -10.860040 -4.562084 -29.412260 10.862877 17.866628 62.334625 -0.150192 -14.721848 -8.534804 0.379614 -3.956750 -10.955153 0.000000 0.000000 0.000000 20.857359 12.495559 -18.197424 -3.257572 -11.100649 32.620308 -1.307614 -3.356388 -23.042116 -0.003747 0.382585 -1.051158 5.690531 -0.436766 21.723311 3.936824 1.459507 4.668253 0.612615 0.807784 -7.006549 9.263545 -2.072019 -1.383260 -10.298002 -2.901533 -0.648398 -4.600613 -1.466258 -0.252393 0.000000 0.000000 0.000000 7.512857 27.127354 -31.856721 29.245777 -40.235173 10.920220 7.735440 6.748815 -11.963698 0.000000 0.000000 0.000000 -7.125000 0.000000 0.000000 -17.240508 41.408452 -1.586020 0.000000 0.000000 0.000000 -10.838298 25.217927 26.716126 -19.333231 -29.830159 -5.195768 -20.040426 15.495146 16.121670 0.000000 0.000000 0.000000 7.125000 0.000000 0.000000 7.349219 46.945946 -0.359210
6.658300 17.796364 -0.405926 -180.530821 83.809754 -169.606369 0.000000 0.000000 0.000000 -11.330514 -5.196600 -30.357358 10.350566 17.601032 60.652106 0.068826 -13.745417 -10.459751 0.375585 -3.936234 -10.897278 0.000000 0.000000 0.000000 20.883280 12.569826 -17.186547 -3.165888 -10.958734 32.141116 -1.331248 -3.161058 -23.137347 -0.012667 0.717506 -1.971921 5.769672 -0.205619 21.949708 3.776156 1.777562 4.696616 0.305189 0.954826 -7.077178 9.182074 -2.060491 -1.618157 -10.195577 -2.896802 -0.557285 -4.559289 -1.470146 -0.184070 0.000000 0.000000 0.000000 7.559350 28.236189 -32.276545 27.954761 -39.072009 10.096150 4.455652 6.446512 -11.433448 0.000000 0.000000 0.000000 -7.125000 0.000000 0.000000 -19.864833 40.606831 -2.260645 0.000000 0.000000 0.000000 -10.899859 24.927140 27.294694 -19.856218 -30.468026 -5.458564 -23.471500 15.286211 15.165130 0.000000 0.000000 0.000000 7.125000 0.000000 0.000000 3.921788 46.402381 -0.141188
6.904300 17.833224 -0.421699 -181.463214 84.225633 -170.307967 0.000000 0.000000 0.000000 -11.791278 -5.912490 -31.222730 9.699804 17.236517 58.478736 0.266531 -12.760311 -12.093507 0.377220 -3.944470 -10.920411 0.000000 0.000000 0.000000 20.912518 12.522309 -16.221449 -3.056650 -10.786154 31.562041 -1.337290 -2.921091 -23.069865 -0.030740 1.127872 -3.100707 5.845133 0.000283 22.089490 3.590596 2.050338 4.718299 -0.015333 1.079746 -7.107147 9.093241 -2.034876 -1.819014 -10.104073 -2.874192 -0.536133 -4.519318 -1.463775 -0.140022 0.000000 0.000000 0.000000 7.642267 29.360346 -32.625102 26.850782 -38.035828 9.407316 0.822330 5.876150 -11.150014 0.000000 0.000000 0.000000 -7.125000 0.000000 0.000000 -22.801354 40.022130 -2.979995 0.000000 0.000000 0.000000 -10.950367 24.740754 27.905529 -20.506069 -31.246777 -5.791791 -25.975170 14.235536 14.209863 0.000000 0.000000 0.000000 7.125000 0.000000 0.000000 1.410010 45.705713 -0.025934
7.154117 17.872689 -0.437663 -182.143008 84.618278 -170.722765 0.000000 0.000000 0.000000 -12.203086 -6.671819 -31.984414 8.933387 16.761123 55.854127 0.433473 -11.857425 -13.431555 0.391625 -4.018338 -11.128309 0.000000 0.000000 0.000000 20.975542 12.341069 -15.265978 -2.928749 -10.578407 30.871325 -1.324779 -2.640722 -22.836597 -0.061340 1.588924 -4.371065 5.893059 0.189867 22.137615 3.395356 2.285366 4.732446 -0.319370 1.187282 -7.096679 9.030470 -1.996786 -1.911601 -10.046451 -2.832582 -0.610953 -4.492216 -1.444647 -0.140915 0.000000 0.000000 0.000000 7.757549 30.482219 -32.930791 25.903059 -37.111174 8.829783 -2.983607 5.129026 -11.300682 0.000000 0.000000 0.000000 -7.125000 0.000000 0.000000 -25.957198 39.821314 -3.600238 0.000000 0.000000 0.000000 -10.966556 24.664057 28.430180 -21.281666 -32.154121 -6.199940 -27.277551 12.529776 13.423796 0.000000 0.000000 0.000000 7.125000 0.000000 0.000000 0.089759 45.010411 -0.001673
